Coordinates
version=1
nRows=10
nColumns=22
inDegrees=yes

Units are S.I. units (second, meters, Newtons, ...)
If the header above contains a line with 'inDegrees', this indicates whether rotational values are in degrees (yes) or radians (no).

endheader
time	pelvis_tilt	pelvis_list	pelvis_rotation	pelvis_tx	pelvis_ty	pelvis_tz	hip_flexion_r	hip_adduction_r	hip_rotation_r	knee_angle_r	ankle_angle_r	subtalar_angle_r	hip_flexion_l	hip_adduction_l	hip_rotation_l	knee_angle_l	ankle_angle_l	subtalar_angle_l	lumbar_extension	lumbar_bending	lumbar_rotation
      0.01000000	    -10.43636733	      1.62649908	    -26.66598613	     -0.99481716	      0.97747325	     -0.15335400	     17.17458540	      4.01205284	     -4.49430275	    -21.74592861	     19.41963966	     -7.03440749	     17.78884380	     -1.93616893	     -3.98111783	    -23.08470454	     21.84742057	     -4.00176911	      2.51187983	      3.93684620	      5.04779679
      0.02000000	    -10.41447305	      1.60404924	    -26.68481995	     -0.99497128	      0.97745492	     -0.15338051	     17.20134303	      4.02980765	     -4.46309398	    -21.83594900	     19.40162423	     -7.03485733	     17.80841745	     -1.95180608	     -3.97077144	    -23.16864217	     21.86315392	     -3.99997976	      2.43560824	      3.94307924	      5.01109769
      0.03000000	    -10.38780445	      1.58728970	    -26.70801459	     -0.99514431	      0.97743239	     -0.15341546	     17.23518857	      4.03901879	     -4.43779791	    -21.93878431	     19.39936988	     -7.03665661	     17.82799810	     -1.96092652	     -3.96605638	    -23.25594946	     21.88255757	     -4.00004864	      2.35257954	      3.94076531	      4.98399731
      0.04000000	    -10.35728884	      1.57909743	    -26.73758473	     -0.99534525	      0.97739231	     -0.15345382	     17.28186916	      4.03624063	     -4.43026083	    -22.06236326	     19.42515000	     -7.03915861	     17.85373437	     -1.96602848	     -3.99538023	    -23.35149071	     21.92467042	     -4.00153007	      2.26476810	      3.92605629	      4.97637089
      0.05000000	    -10.33090690	      1.57166965	    -26.76511044	     -0.99555092	      0.97736802	     -0.15351153	     17.32726772	      4.03863896	     -4.38935573	    -22.17414281	     19.42308229	     -7.04014383	     17.86822516	     -1.96345300	     -3.98075048	    -23.41562628	     21.93064718	     -4.00268591	      2.18224431	      3.91955085	      4.94804317
      0.06000000	    -10.29984173	      1.58683854	    -26.80171773	     -0.99578398	      0.97731612	     -0.15356301	     17.39352329	      4.01358094	     -4.37907331	    -22.31079141	     19.45515910	     -7.04052704	     17.89465752	     -1.94692519	     -4.02066570	    -23.49071669	     21.95941794	     -4.01110230	      2.10399188	      3.88284414	      4.96122223
      0.07000000	    -10.27987333	      1.58508322	    -26.82834355	     -0.99600311	      0.97728548	     -0.15362805	     17.44362123	      4.01321381	     -4.34236046	    -22.41308387	     19.45315443	     -7.04062644	     17.90659005	     -1.94181987	     -4.01163634	    -23.53095791	     21.95970409	     -4.01364211	      2.03378573	      3.87697513	      4.94057994
      0.08000000	    -10.25699868	      1.62279654	    -26.87571511	     -0.99623525	      0.97721520	     -0.15366918	     17.52526338	      3.97115493	     -4.33231232	    -22.54356004	     19.48803774	     -7.03738523	     17.93327275	     -1.91120123	     -4.07411696	    -23.57505408	     21.97739125	     -4.02735800	      1.98325243	      3.82532883	      4.97885605
      0.09000000	    -10.25021982	      1.66593009	    -26.92501520	     -0.99646358	      0.97713760	     -0.15369773	     17.61710226	      3.93770497	     -4.28551290	    -22.66186155	     19.51594335	     -7.02660475	     17.95757956	     -1.88122178	     -4.12478931	    -23.58022875	     21.97038928	     -4.04134226	      1.95838850	      3.78026410	      5.00632851
      0.10000000	    -10.23637779	      1.68743593	    -26.95981567	     -0.99668084	      0.97708603	     -0.15373380	     17.67817464	      3.91565654	     -4.27472202	    -22.75406825	     19.52398850	     -7.02160373	     17.97287663	     -1.86611324	     -4.16349565	    -23.60005847	     21.97489728	     -4.04942008	      1.91693464	      3.75069525	      5.03275027
